PathFileType	4	(X/Y/Z)	1H_rest_slow_left.trc
DataRate	CameraRate	NumFrames	NumMarkers	Units	OrigDataRate	OrigDataStartFrame	OrigNumFrames
250.00	250.00	16	18	mm	250.00	8503	13604
Frame#	Time	c7	r_should	l_should	clavicle	r_upa	r_elb_l	r_elb_m	r_low	r_wri_l	r_wri_m	r_met	l_upa	l_elb_l	l_elb_m	l_low	l_wri_l	l_wri_m	l_met
	X1	Y1	Z1	X2	Y2	Z2	X3	Y3	Z3	X4	Y4	Z4	X5	Y5	Z5	X6	Y6	Z6	X7	Y7	Z7	X8	Y8	Z8	X9	Y9	Z9	X10	Y10	Z10	X11	Y11	Z11	X12	Y12	Z12	X13	Y13	Z13	X14	Y14	Z14	X15	Y15	Z15	X16	Y16	Z16	X17	Y17	Z17	X18	Y18	Z18
8503	34.00800	594.92859	1414.89270	280.57205	662.30505	1357.10425	431.10684	626.35480	1374.54016	112.58601	734.38092	1288.65527	256.93393	670.11212	1149.88611	498.02554	667.54065	1060.77905	518.55884	620.72687	1025.04004	447.41022	729.73657	888.84308	503.21310	760.28571	826.84222	474.33984	694.76025	801.07159	499.06845	798.13922	749.42908	503.11066	627.47229	1193.33264	33.09938	627.63348	1123.77881	10.23276	672.98297	1064.14490	87.43335	716.02118	1189.24988	15.00856	752.51581	1249.00342	49.18923	810.62946	1211.19727	30.80063	789.53729	1321.36804	15.22787
8504	34.01200	594.87170	1414.88477	280.57507	662.24274	1357.10010	431.12012	626.30511	1374.52832	112.59547	734.31909	1288.65381	256.95291	670.06903	1149.88977	498.03754	667.50977	1060.78174	518.56531	620.70435	1025.03589	447.41037	729.73248	888.85767	503.21066	760.29443	826.86224	474.33896	694.76855	801.08020	499.06232	798.15979	749.45361	503.10992	627.45380	1193.30884	33.13655	627.64142	1123.74475	10.27883	672.99500	1064.15100	87.49275	716.02368	1189.23682	15.04104	752.50012	1249.01306	49.18358	810.62482	1211.20862	30.82608	789.52429	1321.34583	15.18410
8505	34.01600	594.81659	1414.87939	280.58755	662.18042	1357.09888	431.13605	626.25421	1374.52612	112.60553	734.25665	1288.65247	256.97327	670.02167	1149.89014	498.05237	667.47174	1060.77905	518.57831	620.67853	1025.03137	447.40652	729.72607	888.87012	503.21341	760.29865	826.87714	474.34271	694.77490	801.08533	499.05838	798.17273	749.47437	503.11142	627.43713	1193.28943	33.17566	627.65875	1123.70911	10.32758	673.00153	1064.15698	87.56237	716.02393	1189.22095	15.07851	752.48340	1249.02393	49.17256	810.61700	1211.21094	30.86254	789.51215	1321.32764	15.14198
8506	34.02000	594.75781	1414.86902	280.60553	662.11639	1357.09216	431.14996	626.20386	1374.52478	112.61639	734.19128	1288.65210	256.99780	669.96875	1149.89233	498.07004	667.42139	1060.77722	518.59247	620.65240	1025.03113	447.40891	729.70972	888.87427	503.21780	760.29285	826.89429	474.35394	694.77747	801.08746	499.05670	798.17853	749.49237	503.11722	627.42865	1193.26501	33.21622	627.67645	1123.67529	10.37579	673.01147	1064.16357	87.63319	716.02362	1189.19946	15.11556	752.46893	1249.03064	49.16043	810.60754	1211.20544	30.90265	789.50604	1321.32507	15.09259
8507	34.02400	594.69788	1414.85400	280.62909	662.04974	1357.08899	431.16409	626.14069	1374.52136	112.63112	734.12030	1288.64917	257.01849	669.90363	1149.88818	498.09027	667.36523	1060.76978	518.61273	620.61877	1025.03149	447.41541	729.68567	888.87866	503.23016	760.28473	826.90881	474.35818	694.77832	801.08057	499.05585	798.18494	749.51056	503.12592	627.41913	1193.23975	33.25551	627.69305	1123.63818	10.43189	673.00659	1064.16650	87.70989	716.02039	1189.17444	15.15105	752.45679	1249.03418	49.15213	810.59900	1211.19092	30.94707	789.50153	1321.32251	15.03548
8508	34.02800	594.63361	1414.83667	280.65100	661.97681	1357.09375	431.18481	626.07642	1374.51660	112.64780	734.04462	1288.63782	257.03854	669.84009	1149.88159	498.11435	667.30286	1060.76050	518.63525	620.58600	1025.01978	447.41470	729.66254	888.88098	503.23837	760.26990	826.91516	474.36194	694.77380	801.07092	499.05508	798.18231	749.52753	503.13461	627.40662	1193.20935	33.29819	627.70441	1123.59875	10.49136	673.02747	1064.17090	87.78575	716.00977	1189.14722	15.18490	752.44324	1249.03113	49.13886	810.58752	1211.16809	30.98868	789.49957	1321.31494	14.97834
8509	34.03200	594.56000	1414.82092	280.67111	661.90948	1357.09143	431.19864	626.00330	1374.51160	112.66130	733.97070	1288.62830	257.05994	669.77637	1149.87927	498.13788	667.24603	1060.74817	518.64758	620.54755	1025.00842	447.41721	729.63995	888.88416	503.24686	760.25488	826.92145	474.37216	694.76813	801.07007	499.05966	798.17950	749.54053	503.13962	627.39471	1193.18738	33.34562	627.71155	1123.55713	10.56070	673.04358	1064.16846	87.86853	715.99792	1189.12354	15.21799	752.42682	1249.03418	49.11981	810.57361	1211.14954	31.02116	789.49573	1321.30420	14.92027
8510	34.03600	594.48541	1414.81067	280.69125	661.84937	1357.08789	431.21912	625.92889	1374.50073	112.67262	733.89508	1288.61646	257.06958	669.70886	1149.87390	498.15424	667.19385	1060.73999	518.66199	620.50568	1025.00659	447.42398	729.61298	888.88336	503.25281	760.23834	826.92609	474.37701	694.76141	801.07257	499.06519	798.17773	749.55615	503.14261	627.37915	1193.15503	33.39241	627.71228	1123.51294	10.63320	673.05756	1064.17419	87.94764	715.98676	1189.10205	15.24966	752.41235	1249.04224	49.09703	810.56085	1211.14185	31.03829	789.49194	1321.29907	14.86376
8511	34.04000	594.41321	1414.80054	280.69888	661.78668	1357.08740	431.22964	625.84686	1374.49146	112.68772	733.82520	1288.61694	257.08539	669.65424	1149.87268	498.16614	667.14154	1060.73816	518.67474	620.46136	1025.00891	447.43481	729.58527	888.88727	503.25705	760.22296	826.94263	474.37912	694.75653	801.07733	499.06458	798.17670	749.57983	503.14969	627.36462	1193.12585	33.43721	627.71704	1123.47644	10.69691	673.09930	1064.18481	88.02415	715.97650	1189.08887	15.27177	752.39905	1249.04944	49.07358	810.54816	1211.14868	31.03408	789.48761	1321.30139	14.80831
8512	34.04400	594.33746	1414.79968	280.70505	661.71497	1357.09302	431.23703	625.76422	1374.48572	112.70539	733.76074	1288.62329	257.09695	669.59692	1149.87769	498.17392	667.09174	1060.74097	518.68536	620.41913	1025.00867	447.44312	729.56262	888.89618	503.26108	760.21448	826.96155	474.38382	694.74805	801.08948	499.06070	798.17761	749.60608	503.15576	627.35388	1193.09644	33.48537	627.72461	1123.43848	10.76196	673.14520	1064.18494	88.10870	715.97382	1189.07532	15.27534	752.38873	1249.05957	49.03979	810.53766	1211.16382	31.01314	789.47498	1321.29834	14.74404
8513	34.04800	594.26257	1414.79956	280.70850	661.65399	1357.09570	431.24741	625.68378	1374.47473	112.71719	733.69409	1288.62585	257.10828	669.54242	1149.88318	498.17996	667.04596	1060.74951	518.69806	620.37946	1025.00745	447.45084	729.53894	888.91309	503.26901	760.20044	826.98560	474.38312	694.73328	801.10242	499.05341	798.17706	749.63495	503.16125	627.34113	1193.06750	33.52620	627.73560	1123.39819	10.82303	673.18549	1064.18604	88.18625	715.98035	1189.06567	15.28078	752.38055	1249.07068	49.00725	810.53302	1211.18140	30.98661	789.46484	1321.28979	14.68338
8514	34.05200	594.18762	1414.80090	280.70944	661.58606	1357.10413	431.25424	625.60223	1374.46069	112.73733	733.62683	1288.63660	257.11600	669.48444	1149.89563	498.19022	667.00104	1060.75598	518.70837	620.34125	1025.01062	447.45593	729.51556	888.93188	503.27682	760.18597	827.00769	474.38489	694.71393	801.11279	499.04568	798.17584	749.66669	503.16669	627.32849	1193.03943	33.57186	627.74640	1123.35730	10.87381	673.22778	1064.19067	88.25510	715.98682	1189.05444	15.28712	752.37018	1249.08435	48.97431	810.52808	1211.20300	30.95470	789.45374	1321.28381	14.62451
8515	34.05600	594.10736	1414.79749	280.71231	661.51410	1357.11731	431.26691	625.52698	1374.44263	112.75472	733.56213	1288.64404	257.13312	669.42950	1149.90247	498.20267	666.95215	1060.76636	518.71692	620.29962	1025.01025	447.46683	729.49408	888.95020	503.28540	760.17035	827.03156	474.38977	694.69635	801.12305	499.04559	798.17102	749.68988	503.16931	627.31805	1193.01294	33.61737	627.75433	1123.31897	10.92904	673.26819	1064.18640	88.31494	715.99597	1189.03772	15.28768	752.36377	1249.09131	48.94195	810.52313	1211.22168	30.93291	789.44080	1321.27808	14.56554
8516	34.06000	594.02576	1414.79578	280.72241	661.44226	1357.12842	431.28253	625.45544	1374.43127	112.76260	733.49561	1288.65698	257.15143	669.37891	1149.90698	498.21478	666.90192	1060.77563	518.73096	620.25623	1025.01208	447.47562	729.47131	888.96393	503.29965	760.15344	827.04962	474.40094	694.67950	801.13690	499.04926	798.16315	749.71057	503.17551	627.31116	1192.97937	33.65247	627.75952	1123.28271	10.98710	673.29108	1064.18530	88.36974	716.00073	1189.02161	15.30194	752.35962	1249.09485	48.91209	810.52008	1211.22925	30.93011	789.42792	1321.27368	14.50891
8517	34.06400	593.94562	1414.79285	280.73920	661.36298	1357.13403	431.29868	625.38373	1374.41760	112.76984	733.42200	1288.66797	257.17502	669.32043	1149.90735	498.23206	666.85107	1060.77747	518.74982	620.21893	1025.01599	447.48169	729.44751	888.97467	503.31360	760.13330	827.06628	474.41788	694.65564	801.14343	499.06122	798.14459	749.72974	503.18890	627.29785	1192.94873	33.68415	627.76538	1123.24548	11.03922	673.33148	1064.18481	88.41182	715.99841	1189.00208	15.31861	752.35242	1249.09119	48.88514	810.51642	1211.22290	30.94889	789.41443	1321.26636	14.46189
8518	34.06800	593.86243	1414.78601	280.75916	661.27759	1357.14746	431.32278	625.31403	1374.40186	112.78852	733.34772	1288.66760	257.20602	669.26337	1149.90674	498.25000	666.79895	1060.77734	518.76361	620.17877	1025.01892	447.48932	729.41675	888.98444	503.33649	760.10718	827.07874	474.44012	694.62903	801.14319	499.08258	798.12238	749.74298	503.20755	627.27869	1192.91736	33.72089	627.76556	1123.20459	11.08765	673.36237	1064.17871	88.45162	715.99158	1188.97754	15.32859	752.34418	1249.08191	48.86544	810.50690	1211.20093	30.98434	789.39783	1321.25769	14.41117
